<?xml version="1.0" encoding="UTF-8" standalone="no"?>
<!-- Created with Inkscape (http://www.inkscape.org/) -->

<svg
   version="1.1"
   id="svg2"
   width="1108.488"
   height="408.96634"
   viewBox="0 0 1108.488 408.96633"
   sodipodi:docname="logo-ws.svg"
   inkscape:version="1.4.2 (ebf0e940d0, 2025-05-08)"
   inkscape:export-filename="/home/michaelburij/Schreibtisch/logo druck.png"
   inkscape:export-xdpi="300"
   inkscape:export-ydpi="300"
   xmlns:inkscape="http://www.inkscape.org/namespaces/inkscape"
   xmlns:sodipodi="http://sodipodi.sourceforge.net/DTD/sodipodi-0.dtd"
   xmlns="http://www.w3.org/2000/svg"
   xmlns:svg="http://www.w3.org/2000/svg"
   xmlns:rdf="http://www.w3.org/1999/02/22-rdf-syntax-ns#"
   xmlns:cc="http://creativecommons.org/ns#"
   xmlns:dc="http://purl.org/dc/elements/1.1/">
  <metadata
     id="metadata8">
    <rdf:RDF>
      <cc:Work
         rdf:about="">
        <dc:format>image/svg+xml</dc:format>
        <dc:type
           rdf:resource="http://purl.org/dc/dcmitype/StillImage" />
      </cc:Work>
    </rdf:RDF>
  </metadata>
  <defs
     id="defs6" />
  <sodipodi:namedview
     pagecolor="#ffffff"
     bordercolor="#666666"
     borderopacity="1"
     objecttolerance="10"
     gridtolerance="10"
     guidetolerance="10"
     inkscape:pageopacity="0"
     inkscape:pageshadow="2"
     inkscape:window-width="1920"
     inkscape:window-height="1019"
     id="namedview4"
     showgrid="false"
     fit-margin-top="0"
     fit-margin-left="0"
     fit-margin-right="0"
     fit-margin-bottom="0"
     inkscape:zoom="0.35532756"
     inkscape:cx="4.221457"
     inkscape:cy="194.18702"
     inkscape:window-x="0"
     inkscape:window-y="0"
     inkscape:window-maximized="1"
     inkscape:current-layer="svg2"
     inkscape:showpageshadow="2"
     inkscape:pagecheckerboard="0"
     inkscape:deskcolor="#d1d1d1" />
  <path
     style="fill:#000000;stroke:none;stroke-width:7.32327px;stroke-linecap:butt;stroke-linejoin:miter;stroke-opacity:1"
     d="M 744.16025,0 375.2674,4.5490535 152.2139,233.54332 l -12.7643,-24.75047 -7.55683,-5.04291 -12.80919,2.8582 2.37928,33.38462 -9.68171,-7.25747 -12.50992,4.17491 v 51.01232 L 0,389.84242 l 0.9128,19.12393 31.87335,-0.91286 101.50086,-112.99311 2.49899,20.03679 -1.19712,1.45149 1.52633,1.24204 1.60115,12.89893 -0.55371,0.67313 0.70334,0.58395 4.04028,32.57658 -0.55371,0.65825 0.68833,0.5535 1.8705,14.97891 -0.0898,0.11962 0.11975,0.09 2.6187,21.20402 3.92058,-0.23925 2.67856,1.96032 239.90296,-328.789283 4.36951,73.817453 7.30245,-0.43396 -4.72865,-80.147215 330.15114,-1.765765 -4.2498,74.19156 7.30242,0.43396 3.84569,-66.859194 212.50393,330.270644 6.16527,-3.95044 -8.32009,-12.9439 6.13531,0.83796 1.49629,-10.9686 8.09549,9.93606 -2.2295,17.83717 h -0.0764 v 0.91278 l 7.28749,0.46359 2.63367,-21.21894 0.11962,-0.10548 -0.09,-0.10549 1.85557,-14.97896 0.688,-0.5535 -0.53793,-0.65826 4.02535,-32.59158 0.70355,-0.56908 -0.53863,-0.67313 1.60118,-12.89893 1.5113,-1.22712 -1.18201,-1.46644 2.45401,-19.88715 88.78153,102.81775 37.3501,4.56392 -1.8255,-35.52461 -87.1652,-89.36502 v -41.7945 l -12.5249,-4.17498 -9.69674,7.27254 2.39431,-33.41463 -12.80922,-2.84317 -7.54191,5.04289 -9.69662,18.7948 z m -9.11319,9.0981143 224.05616,263.2469257 16.40052,-3.65127 20.05185,26.41147 -16.37064,0.91278 h -0.0424 l -3.63635,-0.44802 -2.02013,16.23593 -7.31735,-8.9934 2.94779,-21.7726 -7.27246,-0.9876 -5.41689,40.05862 -0.14871,0.13458 0.10548,0.13458 -2.03514,15.15853 -0.97254,0.7931 0.73316,0.89785 -4.38449,32.38209 -0.09,0.075 0.0764,0.075 -2.22967,16.47547 L 737.05782,59.183765 395.2798,61.039301 168.00644,372.48524 l -0.98763,-7.25753 0.0453,-0.09 -0.0751,-0.075 -4.39942,-32.38216 0.74823,-0.89786 -0.97265,-0.79307 -2.05007,-15.17349 0.11976,-0.13457 -0.16465,-0.13458 -5.41697,-40.05862 -3.6213,0.47846 235.89277,-262.304008 z m 1.81072,9.0981217 -347.9432,0.912804 v 3.666175 l 0.0163,3.666189 L 736.47,25.528599 c 0.0283,0.821512 0.15496,1.714273 0.40413,2.708482 0.91074,3.643334 207.67043,264.144749 207.67043,264.144749 1.8218,-5.46509 2.7385,-18.22616 2.7385,-18.22616 L 736.85778,21.862417 Z M 388.91458,22.775215 163.04784,276.89403 169.40755,287.8327 388.91458,30.975494 Z m 176.70997,69.208546 -53.73573,4.564021 -0.91289,10.010918 4.54908,2.73842 c 0,0 44.6307,1.82559 48.27391,1.8256 3.64336,0 52.83796,-5.46186 52.83796,-5.46186 V 93.824331 Z m 138.43208,61.023229 -281.44311,0.89785 0.0163,7.33235 281.45812,-0.9128 z M 422.88286,167.133 379.42738,274.87387 256.04915,402.78624 l 5.25236,5.07275 124.36587,-128.94482 44.00915,-109.04275 z m 281.87713,0.0425 -6.83858,2.64867 42.12375,108.9679 108.7882,127.98724 5.58161,-4.74357 -107.98025,-127.04442 z m -69.04404,0.70355 -7.19767,1.24206 18.2711,106.93285 50.23417,128.78025 6.82358,-2.66351 -49.96484,-128.09194 z m -146.5425,3.56167 -19.94707,101.50097 -68.05628,131.60842 6.47941,3.36696 68.56506,-132.53629 20.1416,-102.51851 z m -358.74716,40.13347 3.38187,2.25959 13.03365,25.24438 -16.68486,17.11873 -0.80806,-8.72397 -2.51395,-35.0907 z m 857.90172,3.54652 3.59125,0.80803 -2.51391,35.09063 -0.0283,0.35886 -14.36535,-14.72458 9.93606,-19.27363 z m -877.86369,25.78302 11.73178,8.79878 1.25697,13.37784 -16.86443,17.32838 v -38.21807 z m 897.82558,3.54645 3.8756,1.28693 v 29.0002 l -16.08626,-16.49034 0.47846,-4.99794 z m -868.01732,31.52855 h 10.86387 l -3.5764,0.49404 2.94791,21.78753 -7.3174,8.9785 -2.02014,-16.22103 -3.63625,0.44805 -0.1047,0.0217 -3.51655,0.43458 0.0155,0.22429 -10.96862,2.05015 z m 11.58214,32.21757 0.74823,5.46186 -7.48201,9.18784 -0.68834,-5.53664 z m 812.9648,4.549 7.42209,9.11311 -0.67312,5.53664 -7.48199,-9.18784 z m -840.03469,5.13265 -75.59817,89.26031 24.58587,-1.82555 54.66352,-64.6595 z m 863.46828,1.81068 -0.91286,25.52863 49.18665,61.921 18.2263,-1.82555 z m -834.28846,3.90559 0.92776,6.9134 -7.66156,9.39737 -0.86793,-6.98822 z m 808.77484,4.564 7.57173,9.3076 -0.86792,7.00317 -7.64661,-9.39737 z m -806.50032,12.28548 0.89785,6.61416 -7.82618,9.59192 -0.82302,-6.67402 z m 804.21079,4.56406 7.7513,9.51713 -0.8229,6.67389 -7.82626,-9.59196 z m -801.96618,11.98616 0.82302,6.06043 -7.99078,9.80137 -0.76317,-6.13517 z m 799.70658,4.54904 7.93101,9.72659 -0.74857,6.13522 -8.0057,-9.80137 z m -797.5368,11.44747 1.09237,8.02068 -8.05063,11.02849 -1.13727,-9.12803 z"
     id="path12"
     inkscape:connector-curvature="0"
     sodipodi:nodetypes="cccccccccccccccccccccccccccccccccccccccccccccccccccccccccccccccccccccccccccccccccccccccccccccccccccccccccccccccccccccccccccccccccccccccccccccccccccccccccccccccccccccccccccccccccccccccccccccccccccccccccccccccccccccccccccccccccccccccccccccccccccccccccccccccccc" />
</svg>
