<?xml version="1.0" encoding="UTF-8" standalone="no"?>
<!-- Created with Inkscape (http://www.inkscape.org/) -->

<svg
   width="16"
   height="16"
   viewBox="0 0 4.2333328 4.2333328"
   version="1.1"
   id="svg1"
   inkscape:version="1.4.2 (ebf0e940d0, 2025-05-08)"
   sodipodi:docname="favicon.svg"
   inkscape:export-filename="favicon.ico"
   inkscape:export-xdpi="3072"
   inkscape:export-ydpi="3072"
   xmlns:inkscape="http://www.inkscape.org/namespaces/inkscape"
   xmlns:sodipodi="http://sodipodi.sourceforge.net/DTD/sodipodi-0.dtd"
   xmlns="http://www.w3.org/2000/svg"
   xmlns:svg="http://www.w3.org/2000/svg"
   xmlns:rdf="http://www.w3.org/1999/02/22-rdf-syntax-ns#"
   xmlns:cc="http://creativecommons.org/ns#"
   xmlns:dc="http://purl.org/dc/elements/1.1/">
  <defs
     id="defs1" />
  <sodipodi:namedview
     id="base"
     pagecolor="#ffffff"
     bordercolor="#000000"
     borderopacity="0.3"
     inkscape:pageopacity="0.0"
     inkscape:pageshadow="2"
     inkscape:zoom="37.193376"
     inkscape:cx="6.8426163"
     inkscape:cy="8.2003849"
     inkscape:document-units="mm"
     inkscape:showpageshadow="2"
     inkscape:pagecheckerboard="0"
     inkscape:deskcolor="#d1d1d1"
     inkscape:window-width="1920"
     inkscape:window-height="1011"
     inkscape:window-x="0"
     inkscape:window-y="0"
     inkscape:window-maximized="1"
     inkscape:current-layer="svg1" />
  <metadata
     id="metadata1">
    <rdf:RDF>
      <cc:Work
         rdf:about="">
        <dc:format>image/svg+xml</dc:format>
        <dc:type
           rdf:resource="http://purl.org/dc/dcmitype/StillImage" />
      </cc:Work>
    </rdf:RDF>
  </metadata>
  <path
     id="path1"
     style="fill:#bdc9f6;stroke-width:0.543814"
     d="M 2.1125326 0.0072347005 A 2.1127753 2.1127753 0 0 0 0 2.1197673 A 2.1127753 2.1127753 0 0 0 2.1125326 4.2328166 A 2.1127753 2.1127753 0 0 0 4.2255819 2.1197673 A 2.1127753 2.1127753 0 0 0 2.1125326 0.0072347005 z M 2.1425049 0.020153809 C 2.2111634 0.020153809 2.2692474 0.037933312 2.3166545 0.073897298 C 2.4032949 0.14419054 2.4449808 0.2196217 2.4417114 0.29972331 C 2.4400781 0.37819018 2.4288576 0.4667398 2.407605 0.5648234 C 2.3879883 0.66127227 2.3617515 0.7666523 2.3290568 0.88108317 C 2.2979969 0.99551402 2.2619212 1.115394 2.2210531 1.2412679 C 2.1115263 1.5649438 2.0300527 1.7986611 1.9761068 1.9425171 L 1.8360636 2.3078695 C 1.9782849 2.0871813 2.0944529 1.9358867 2.1843628 1.8541504 C 2.3641827 1.6955819 2.5515531 1.6164388 2.7460856 1.6164388 C 3.0321627 1.6164388 3.222296 1.7658352 3.3171102 2.0649902 C 3.3481702 2.167978 3.363619 2.2963153 3.363619 2.4499797 C 3.363619 2.6036439 3.3411788 2.7568368 3.2954061 2.9088664 C 3.2512686 3.0592612 3.1903372 3.1997679 3.113505 3.3305461 C 3.0366729 3.4596895 2.9467419 3.5768066 2.8437541 3.681429 C 2.742401 3.7860516 2.6356396 3.8750335 2.5228434 3.9485962 C 2.2841734 4.1022605 2.0527865 4.1790731 1.8288289 4.1790731 C 1.6032367 4.1790731 1.4257051 4.1102012 1.2965617 3.9728841 C 1.1706877 3.8355671 1.1079427 3.6641624 1.1079427 3.4581868 C 1.1079427 3.3633727 1.1145018 3.2724925 1.1275798 3.1858521 C 1.1422924 3.0992115 1.1600719 3.011611 1.1813232 2.9233358 C 1.2042092 2.8350606 1.2294969 2.7470277 1.2572876 2.6587524 L 1.5322062 1.8200439 C 1.7496249 1.1399977 1.8859029 0.6088688 1.9414836 0.22634277 C 1.9594656 0.08902574 2.0264393 0.020153809 2.1425049 0.020153809 z M 2.6013916 1.984375 C 2.5376369 1.984375 2.4706632 2.0106118 2.4003703 2.0629232 C 2.3300776 2.1152343 2.2565441 2.1845387 2.1797119 2.2711792 C 2.1028798 2.356185 2.0264995 2.4550058 1.9513021 2.5678019 C 1.8761046 2.6789633 1.8081818 2.7941822 1.7476969 2.9135173 C 1.6152841 3.1767082 1.5492594 3.4005867 1.5492594 3.5853109 C 1.5492594 3.7684003 1.6312498 3.8602295 1.7947225 3.8602295 C 1.9483868 3.8602295 2.1043425 3.7913576 2.262911 3.6540405 C 2.5048505 3.4447955 2.6673654 3.1460026 2.7507365 2.7569377 C 2.7785265 2.629429 2.7925944 2.496863 2.7925944 2.3595459 C 2.7925944 2.2205942 2.7771456 2.1231548 2.7460856 2.0675741 C 2.7150256 2.0119934 2.6667805 1.984375 2.6013916 1.984375 z " />
</svg>
